<svg width="14" height="14" viewBox="0 0 14 14" fill="none" xmlns="http://www.w3.org/2000/svg">
<path d="M11.6992 10.5061C12.0038 10.5062 12.2499 10.7654 12.25 11.0862C12.25 11.4071 12.0039 11.6662 11.6992 11.6663H2.88379C2.57928 11.666 2.33301 11.407 2.33301 11.0862C2.33314 10.7655 2.57935 10.5064 2.88379 10.5061H11.6992ZM7.2793 8.55298C7.57508 8.63005 7.75481 8.94437 7.68164 9.2561C7.60844 9.56761 7.31057 9.757 7.01465 9.67993C6.71893 9.60281 6.5394 9.28932 6.6123 8.97778C6.68546 8.66612 6.98342 8.47605 7.2793 8.55298ZM6.3252 2.01294C6.34315 1.81586 6.53828 1.69531 6.71094 1.77563L7.39941 2.09692C7.54024 2.16167 7.64952 2.28696 7.69824 2.44165L8.93262 6.30103L11.0537 7.29126C11.5393 7.5187 11.7598 8.11955 11.5439 8.6311C11.3281 9.14269 10.7589 9.37566 10.2715 9.14771L3.59668 6.03442L3.38086 5.93286C2.89367 5.70499 2.63158 5.14371 2.75586 4.59888L3.18555 2.72485C3.22659 2.55068 3.40881 2.45587 3.56543 2.52856L3.83789 2.65649C3.95152 2.70854 4.03863 2.81492 4.07031 2.94458L4.37988 4.17993L6.05859 4.96216L6.3252 2.01294ZM5.69043 7.82739C5.98621 7.90447 6.16594 8.21878 6.09277 8.53052C6.01944 8.84184 5.7216 9.03139 5.42578 8.95435C5.13002 8.87726 4.95027 8.56295 5.02344 8.25122C5.09669 7.93981 5.39456 7.75038 5.69043 7.82739Z" fill="#0F172B"/>
</svg>
