<svg width="14" height="14" viewBox="0 0 14 14" fill="none" xmlns="http://www.w3.org/2000/svg">
<path d="M11.1162 10.5061C11.4207 10.5064 11.6669 10.7655 11.667 11.0862C11.667 11.407 11.4207 11.666 11.1162 11.6663H2.30078C1.99612 11.6662 1.75 11.4071 1.75 11.0862C1.7501 10.7653 1.99618 10.5062 2.30078 10.5061H11.1162ZM9.94043 1.94165C10.372 1.62377 11.0051 1.71708 11.3516 2.15063C11.698 2.58453 11.6321 3.1964 11.1992 3.51587L5.27637 7.89478L5.08496 8.0354C4.6523 8.35483 4.03376 8.31748 3.61426 7.94849L2.17188 6.67603C2.03851 6.55685 2.04218 6.35221 2.18066 6.24927L2.42285 6.06958C2.52277 5.99462 2.65812 5.96919 2.78711 6.00317L4.02051 6.32056L5.50977 5.21997L3.04492 3.57739C2.88051 3.46751 2.86764 3.23859 3.02051 3.12524L3.63184 2.6731C3.75591 2.58035 3.91806 2.54446 4.07715 2.57544L8.05859 3.33325L9.94043 1.94165ZM7.92773 6.86646C8.12934 6.63683 8.49063 6.61735 8.73633 6.82251C8.98178 7.0277 9.01791 7.37879 8.81641 7.60864C8.61474 7.83833 8.25352 7.85793 8.00781 7.65259C7.76236 7.44738 7.72617 7.09629 7.92773 6.86646ZM9.29004 5.77271C9.4917 5.54302 9.85293 5.52343 10.0986 5.72876C10.3442 5.93402 10.3795 6.28505 10.1777 6.51489C9.97596 6.74455 9.61477 6.76412 9.36914 6.55884C9.12385 6.35349 9.08853 6.00242 9.29004 5.77271Z" fill="#0F172B"/>
</svg>
