<?xml version="1.0" encoding="UTF-8"?>
<svg id="Main_Logo" data-name="Main Logo" xmlns="http://www.w3.org/2000/svg" viewBox="0 0 141.98 37.88">
  <defs>
    <style>
      .cls-1 {
        fill: #00a8ed;
      }
    </style>
  </defs>
  <g>
    <path class="cls-1" d="M57.35,28.52h-4.08l-4.99-8.06h-2.96v8.06h-3.36V8.41h7.56c1.69,0,3.14.58,4.35,1.73,1.21,1.15,1.82,2.57,1.82,4.24,0,1.38-.34,2.58-1.02,3.58s-1.61,1.71-2.8,2.11l5.48,8.44ZM45.32,11.66v5.57h4.08c.83,0,1.52-.27,2.07-.81.55-.54.82-1.22.82-2.04s-.27-1.45-.82-1.96c-.55-.51-1.24-.76-2.07-.76h-4.08Z"/>
    <path class="cls-1" d="M68.22,14.48h3.45l-7.94,18.97h-3.44l2.52-5.68-5.57-13.29h3.44l3.77,9.56,3.76-9.56Z"/>
    <path class="cls-1" d="M102.93,20.88c0,.54-.04,1-.11,1.39h-10.68c.18,1.14.63,2.03,1.37,2.68s1.67.97,2.8.97c.79,0,1.52-.16,2.19-.48.66-.32,1.16-.75,1.49-1.3l2.55,1.63c-.52.95-1.34,1.7-2.45,2.24-1.11.54-2.39.81-3.83.81-1.34,0-2.56-.32-3.67-.96-1.11-.64-1.99-1.53-2.64-2.66-.65-1.13-.97-2.38-.97-3.76s.32-2.56.96-3.67c.64-1.11,1.51-1.98,2.62-2.61s2.33-.95,3.65-.95c1.24,0,2.38.29,3.41.88,1.03.59,1.85,1.4,2.44,2.42s.89,2.15.89,3.39ZM92.25,19.81h7.32c-.08-.88-.46-1.6-1.12-2.15-.66-.56-1.48-.83-2.44-.83s-1.74.26-2.4.79-1.11,1.26-1.36,2.19Z"/>
    <path class="cls-1" d="M83.35,8.41v7.09c-1.17-.81-2.59-1.27-4.12-1.27-4.04,0-7.3,3.27-7.3,7.3s3.26,7.31,7.3,7.31c1.53,0,2.95-.46,4.12-1.27v.87h3.2V8.41h-3.2ZM79.23,25.89c-2.41,0-4.36-1.95-4.36-4.36s1.95-4.35,4.36-4.35c1.9,0,3.52,1.22,4.12,2.93v2.85c-.59,1.7-2.22,2.93-4.12,2.93Z"/>
    <path class="cls-1" d="M129.34,14.19c1.76,0,3.15.57,4.19,1.71,1.04,1.14,1.56,2.68,1.56,4.61v8.01h-3.21v-7.5c0-1.12-.3-2.01-.9-2.66-.6-.65-1.4-.98-2.4-.98-.72,0-1.4.18-2.04.53-.64.36-1.14.83-1.49,1.43v9.18h-3.18v-14.04h3.18v1.89c.43-.67,1.03-1.21,1.81-1.6s1.61-.59,2.5-.59Z"/>
    <path class="cls-1" d="M111.88,14.19c-4.04,0-7.31,3.27-7.31,7.3s3.27,7.31,7.31,7.31,7.3-3.27,7.3-7.31-3.27-7.3-7.3-7.3ZM111.88,25.66c-2.31,0-4.17-1.86-4.17-4.17s1.86-4.16,4.17-4.16,4.16,1.86,4.16,4.16-1.86,4.17-4.16,4.17Z"/>
  </g>
  <g>
    <path class="cls-1" d="M29.44,25.64c.07.07.2.06.26-.02l2.35-3.26c.31-.42.6-.86.86-1.31.14-.25.29-.51.41-.76.03-.03.04-.07.05-.1.14-.25.25-.52.36-.77.12-.28.23-.57.32-.85.09-.27.18-.54.25-.82,0-.03.02-.07.03-.1.08-.28.14-.56.19-.84.04-.23.08-.46.12-.69.02-.12.03-.24.05-.36v-.03c.03-.25.06-.5.07-.74.03-.31.03-.62.03-.93,0-1.1-.13-2.17-.37-3.21C32.93,4.52,27.36.1,20.85.1S8.76,4.52,7.28,10.85c-.25,1.03-.38,2.11-.38,3.21,0,.28,0,.56.03.84.02.27.04.55.08.82v.02c.03.26.07.52.12.78v.04c.1.53.23,1.06.38,1.57.16.52.36,1.04.58,1.54.11.25.23.5.36.74.34.68.74,1.33,1.21,1.95l11.07,15.34c.07.09.21.09.28,0l2.63-3.64c.09-.12.09-.28,0-.4l-2.76-3.83-1.44-2-5.96-8.25c-.69-.93-1.22-2.01-1.52-3.17,0-.04-.03-.09-.03-.14-.06-.23-.11-.47-.14-.7-.04-.25-.08-.49-.09-.74-.03-.25-.03-.51-.03-.77,0-.73.08-1.44.25-2.12.25-1.01.65-1.97,1.19-2.83.1-.16.21-.32.32-.47.22-.3.47-.59.73-.87.13-.14.26-.27.4-.41,1.66-1.56,3.89-2.53,6.34-2.53,4.37,0,8.03,3.04,8.98,7.11.17.69.25,1.4.25,2.12,0,.31-.02.63-.05.93-.02.18-.03.36-.07.52,0,.05,0,.1-.03.14-.03.19-.07.37-.12.55-.03.14-.06.27-.1.41-.3,1.08-.81,2.09-1.46,2.97l-1.29,1.79c-.06.09-.19.1-.26.02l-7.71-7.71c-.07-.07-.17-.07-.24,0l-.5.5c-.07.07-.07.17,0,.24l11.2,11.23Z"/>
    <path class="cls-1" d="M16.46,16.69l-.13.13c-.13.13-.14.33-.02.47l1.73,1.98c.13.14.34.16.49.03l.16-.14c.14-.13.15-.34.03-.48l-1.75-1.97c-.13-.15-.35-.15-.49-.02Z"/>
    <path class="cls-1" d="M19.94,20.58l-.18.16c-.14.12-.16.34-.03.48l2.14,2.45c.13.14.34.16.49.03l.21-.18c.14-.13.15-.34.03-.48l-2.16-2.43c-.13-.14-.34-.15-.48-.03Z"/>
    <path class="cls-1" d="M24.44,25.11c-.13-.14-.34-.15-.48-.03l-.23.2c-.14.12-.15.34-.03.48l2.93,3.37c.12.14.34.16.48.03l.27-.24c.14-.13.16-.34.03-.49l-2.97-3.34Z"/>
  </g>
</svg>