<?xml version="1.0" encoding="UTF-8"?>
<svg id="Main_Logo" data-name="Main Logo" xmlns="http://www.w3.org/2000/svg" viewBox="0 0 120 120">
  <defs>
    <style>
      .cls-1 {
        fill: #00a8ed;
      }
    </style>
  </defs>
  <g>
    <g>
      <g>
        <path class="cls-1" d="M22.58,66.06c.1.64.08,1.26-.06,1.87-.15.61-.39,1.15-.74,1.62-.35.47-.79.88-1.32,1.21-.54.33-1.13.55-1.77.65-.65.11-1.29.09-1.91-.05-.62-.14-1.17-.38-1.65-.72-.48-.34-.89-.77-1.22-1.3-.33-.53-.55-1.11-.66-1.75-.1-.64-.08-1.27.06-1.87.15-.61.4-1.15.75-1.62.35-.47.8-.88,1.34-1.21.54-.33,1.14-.55,1.79-.66.86-.14,1.68-.07,2.45.21.77.28,1.42.74,1.95,1.38.52.64.85,1.38.99,2.24ZM21.2,68.01c.22-.56.28-1.14.18-1.75-.1-.61-.34-1.15-.73-1.6-.38-.46-.86-.79-1.44-.99-.58-.2-1.18-.25-1.81-.15-.98.16-1.76.61-2.33,1.36-.57.74-.78,1.58-.62,2.52.15.93.62,1.66,1.39,2.19.78.53,1.65.71,2.64.55.63-.1,1.19-.34,1.67-.72.48-.38.83-.84,1.05-1.4Z"/>
        <path class="cls-1" d="M17.86,71.54c-.37,0-.73-.04-1.09-.12-.62-.14-1.19-.39-1.67-.73-.49-.34-.9-.79-1.24-1.32-.34-.53-.56-1.13-.66-1.77-.11-.65-.08-1.28.07-1.9.15-.61.4-1.16.76-1.64.35-.48.81-.89,1.35-1.22.55-.33,1.16-.56,1.81-.66.87-.14,1.7-.07,2.48.22.78.29,1.44.76,1.97,1.4.53.64.86,1.4,1.01,2.27.1.64.08,1.28-.06,1.89-.15.61-.4,1.16-.75,1.64-.35.48-.8.89-1.34,1.22-.54.33-1.14.55-1.79.66-.28.05-.56.07-.84.07ZM18.03,62.22c-.27,0-.55.02-.83.07-.64.11-1.24.32-1.77.65-.53.33-.98.73-1.32,1.19-.34.47-.59,1-.74,1.6-.15.6-.17,1.22-.06,1.85.1.63.32,1.21.65,1.73.33.52.74.95,1.21,1.29.47.33,1.02.57,1.63.71.61.14,1.25.16,1.89.05.64-.1,1.23-.32,1.75-.65.53-.32.97-.73,1.31-1.19.34-.47.58-1.01.73-1.6.14-.6.16-1.22.06-1.84h0c-.14-.84-.47-1.59-.98-2.21-.51-.63-1.16-1.08-1.92-1.36-.51-.19-1.04-.28-1.6-.28ZM17.81,70.24c-.73,0-1.4-.2-2-.61-.78-.53-1.26-1.28-1.42-2.23-.15-.94.06-1.81.63-2.56.57-.75,1.37-1.22,2.36-1.38.64-.1,1.26-.05,1.84.15.58.2,1.07.54,1.46,1.01.39.46.64,1.01.74,1.63.1.62.04,1.22-.18,1.78-.22.56-.58,1.04-1.07,1.42-.49.38-1.06.62-1.7.73-.23.04-.46.06-.68.06ZM18.03,63.52c-.2,0-.41.02-.62.05-.97.16-1.74.61-2.29,1.34-.56.73-.76,1.56-.61,2.47.15.91.61,1.64,1.37,2.15.76.52,1.63.7,2.6.54.62-.1,1.17-.34,1.65-.71.47-.37.82-.83,1.03-1.37l.05.02-.05-.02c.21-.54.27-1.12.18-1.72-.1-.6-.34-1.13-.71-1.58-.38-.45-.85-.78-1.42-.97-.37-.13-.76-.2-1.17-.2Z"/>
      </g>
      <g>
        <path class="cls-1" d="M23.53,71.33l.44,1.06-4.45,7.01,6.28-2.62.49,1.17-8.49,3.55-.43-1.04,4.44-7.02-6.27,2.62-.49-1.18,8.49-3.55Z"/>
        <path class="cls-1" d="M17.76,81.57l-.47-1.11.02-.02,4.34-6.87-6.16,2.57-.53-1.28.05-.02,8.54-3.57.48,1.14-.02.02-4.36,6.86,6.17-2.58.53,1.27-.05.02-8.54,3.57ZM17.42,80.46l.4.96,8.39-3.5-.44-1.06-6.4,2.67,4.53-7.14-.41-.98-8.39,3.5.45,1.08,6.38-2.66-4.51,7.14Z"/>
      </g>
      <g>
        <path class="cls-1" d="M26.97,79.01l2.93,4.4-1.01.67-2.22-3.34-2.1,1.4,1.98,2.98-1,.67-1.98-2.98-2.54,1.69,2.22,3.34-1,.67-2.93-4.4,7.66-5.1Z"/>
        <path class="cls-1" d="M22.23,88.59l-2.99-4.5.05-.03,7.71-5.13,2.99,4.5-1.1.73-2.22-3.34-2.01,1.34,1.98,2.98-1.1.73-1.98-2.98-2.45,1.63,2.22,3.34-1.1.73ZM19.39,84.13l2.87,4.31.91-.61-2.22-3.34,2.64-1.75,1.98,2.98.91-.61-1.98-2.98,2.19-1.46,2.22,3.34.92-.61-2.87-4.31-7.57,5.04Z"/>
      </g>
      <g>
        <path class="cls-1" d="M31.12,97.49l.73-2.06-3.11-2.71-1.94,1.01-1.01-.88,8.81-4.53.82.72-3.26,9.36-1.04-.91ZM29.9,92.12l2.39,2.08,1.46-4.08-3.85,2Z"/>
        <path class="cls-1" d="M32.18,98.49l-1.13-.99.73-2.06-3.05-2.66-1.94,1.01-1.1-.96,8.91-4.59.88.77v.04s-3.3,9.44-3.3,9.44ZM31.18,97.47l.95.83,3.22-9.25-.77-.67-8.7,4.48.92.8,1.94-1.01.03.02,3.14,2.74-.73,2.06ZM32.32,94.3l-2.51-2.19,4.05-2.1-1.54,4.29ZM30,92.14l2.27,1.98,1.39-3.87-3.65,1.9Z"/>
      </g>
      <g>
        <path class="cls-1" d="M41.69,93.34c.7.4,1.16.96,1.37,1.68.21.72.13,1.42-.26,2.1-.39.68-.94,1.12-1.67,1.31-.73.19-1.44.08-2.15-.31l-1.96-1.12-1.84,3.24-1.11-.63,4.54-8,3.08,1.75ZM39.58,97.05c.38.22.78.27,1.19.16.41-.11.72-.35.93-.73.21-.38.26-.76.14-1.17-.12-.4-.37-.71-.75-.93l-1.96-1.12-1.51,2.66,1.96,1.12Z"/>
        <path class="cls-1" d="M35.2,100.3l-1.21-.69.03-.05,4.57-8.05,3.12,1.77c.71.41,1.18.98,1.4,1.71.22.73.13,1.45-.27,2.14-.39.69-.97,1.14-1.71,1.33-.74.19-1.47.08-2.19-.32l-1.92-1.09-1.84,3.24ZM34.15,99.57l1.01.58,1.84-3.24,2.01,1.14c.69.39,1.4.49,2.1.31.71-.19,1.26-.62,1.64-1.28s.46-1.36.26-2.06c-.21-.7-.66-1.25-1.35-1.64l-3.03-1.72-4.49,7.91ZM40.36,97.33c-.28,0-.55-.07-.81-.22l-2.01-1.14,1.57-2.76,2.01,1.14c.39.22.66.55.78.96.12.41.07.82-.15,1.21-.22.39-.55.64-.97.75-.14.04-.28.06-.42.06ZM39.61,97.01c.37.21.75.26,1.15.16.39-.1.69-.34.9-.7.2-.36.25-.74.14-1.12-.11-.39-.36-.69-.73-.9l-1.92-1.09-1.46,2.57,1.92,1.09Z"/>
      </g>
      <g>
        <path class="cls-1" d="M48.24,96.17c.76.26,1.32.73,1.66,1.4.34.67.38,1.37.13,2.11-.25.74-.72,1.27-1.4,1.59-.68.32-1.4.35-2.17.09l-2.14-.73-1.21,3.52-1.21-.42,2.99-8.7,3.34,1.15ZM46.85,100.21c.42.14.82.12,1.2-.06.38-.18.64-.48.78-.89.14-.41.12-.8-.08-1.17-.19-.37-.49-.63-.91-.78l-2.14-.73-1,2.9,2.14.73Z"/>
        <path class="cls-1" d="M43.14,104.21l-1.31-.45.02-.05,3.01-8.76,3.4,1.17c.78.27,1.34.75,1.69,1.42.35.68.39,1.4.13,2.15-.26.75-.74,1.3-1.43,1.62-.69.32-1.43.35-2.21.09l-2.08-.72-1.21,3.52ZM41.97,103.69l1.1.38,1.21-3.52,2.19.75c.75.26,1.46.23,2.13-.08.66-.31,1.12-.84,1.37-1.56.25-.72.21-1.42-.13-2.07-.33-.65-.88-1.11-1.63-1.37l-3.29-1.13-2.96,8.6ZM47.39,100.36c-.18,0-.37-.03-.56-.1l-2.19-.75,1.03-3,2.19.75c.43.15.75.42.94.8.2.39.22.79.08,1.22-.14.42-.42.73-.81.92-.22.11-.45.16-.68.16ZM44.78,99.44l2.08.72c.4.14.79.12,1.16-.06.37-.18.62-.46.76-.86.13-.39.11-.77-.07-1.13-.18-.36-.48-.61-.88-.75l-2.08-.72-.96,2.79Z"/>
      </g>
      <g>
        <path class="cls-1" d="M50.8,106.46c-.25-.05-.44-.17-.58-.37-.13-.2-.18-.42-.13-.67.05-.24.17-.43.37-.56.2-.13.42-.18.68-.13.24.05.43.17.57.38.14.2.18.42.13.66-.05.24-.17.43-.37.56-.2.13-.43.17-.67.12Z"/>
        <path class="cls-1" d="M50.99,106.54c-.07,0-.14,0-.21-.02h0c-.27-.05-.47-.19-.61-.39-.14-.21-.19-.45-.13-.71.05-.25.18-.45.39-.6.21-.14.45-.19.72-.14.26.05.46.19.6.4.14.21.19.45.14.7-.05.26-.19.46-.4.6-.16.1-.33.15-.51.15ZM50.94,104.77c-.16,0-.31.05-.44.14-.19.13-.3.3-.35.53-.05.23,0,.44.12.62.12.18.31.3.54.35h0c.23.05.44,0,.63-.12.19-.12.3-.3.35-.53.05-.23,0-.43-.12-.62-.13-.19-.31-.31-.53-.35-.07-.01-.13-.02-.19-.02Z"/>
      </g>
      <g>
        <path class="cls-1" d="M57.73,98.05l5.29-.04v1.21s-4,.03-4,.03l.02,2.52,3.57-.02v1.21s-3.57.02-3.57.02l.02,3.06,4.01-.03v1.21s-5.28.04-5.28.04l-.06-9.2Z"/>
        <path class="cls-1" d="M57.74,107.31v-.06s-.06-9.26-.06-9.26l5.4-.04v1.32s-4,.03-4,.03l.02,2.41,3.57-.02v1.32s-3.57.02-3.57.02l.02,2.94,4.01-.03v1.32s-5.39.04-5.39.04ZM57.78,98.11l.06,9.09,5.18-.04v-1.1s-4.02.03-4.02.03l-.02-3.17,3.57-.02v-1.1s-3.58.02-3.58.02l-.02-2.63,4.01-.03v-1.1s-5.18.04-5.18.04Z"/>
      </g>
      <g>
        <path class="cls-1" d="M63.3,98.1l1.33-.26,4,6.58,1.24-7.6,1.3-.25-1.65,9.7-1.05.2-5.18-8.37Z"/>
        <path class="cls-1" d="M68.45,106.53l-.02-.03-5.22-8.44,1.45-.28.02.03,3.92,6.45,1.22-7.49,1.42-.28-1.67,9.81-1.12.22ZM63.39,98.14l5.11,8.27.97-.19,1.63-9.58-1.19.23-1.26,7.71-4.05-6.67-1.21.24Z"/>
      </g>
      <g>
        <path class="cls-1" d="M71.66,96.28l4.92-1.95.45,1.13-3.73,1.48.93,2.35,3.32-1.32.44,1.12-3.32,1.32,1.12,2.84,3.73-1.48.44,1.12-4.92,1.95-3.39-8.56Z"/>
        <path class="cls-1" d="M75.01,104.91l-.02-.05-3.41-8.61.05-.02,4.97-1.97.49,1.23-3.73,1.48.89,2.24,3.32-1.32.49,1.23-3.32,1.32,1.08,2.74,3.73-1.48.49,1.22-5.02,1.99ZM71.73,96.31l3.35,8.45,4.81-1.91-.4-1.02-3.73,1.48-1.17-2.94,3.32-1.32-.4-1.02-3.32,1.32-.97-2.45,3.73-1.48-.41-1.02-4.81,1.91Z"/>
      </g>
      <g>
        <path class="cls-1" d="M88.15,98.11l-1.29.8-4.1-1.95-1.33.83,2.02,3.25-1.08.68-4.87-7.81,2.88-1.8c.66-.41,1.35-.54,2.08-.39.73.15,1.29.55,1.69,1.19.35.56.5,1.13.45,1.71-.05.58-.29,1.09-.71,1.54l4.27,1.96ZM79.21,94.26l1.58,2.5,1.78-1.11c.37-.23.61-.55.7-.94s.02-.77-.2-1.14c-.22-.36-.53-.58-.92-.66-.39-.08-.77,0-1.14.23l-1.79,1.11Z"/>
        <path class="cls-1" d="M82.35,101.79l-.03-.05-4.9-7.86,2.93-1.82c.67-.42,1.38-.55,2.12-.39.74.15,1.32.56,1.72,1.21.36.57.51,1.16.46,1.75-.05.57-.28,1.07-.68,1.51l4.29,1.97-1.4.87h-.03s-4.07-1.95-4.07-1.95l-1.26.78,2.02,3.25-1.18.73ZM77.58,93.92l4.81,7.72.99-.62-2.02-3.25,1.4-.87h.03s4.07,1.95,4.07,1.95l1.18-.73-4.24-1.94.05-.06c.41-.43.65-.94.7-1.5.05-.56-.1-1.13-.44-1.68-.39-.62-.94-1.01-1.65-1.16-.71-.15-1.39-.02-2.04.38l-2.83,1.77ZM80.77,96.84l-1.63-2.6,1.83-1.14c.38-.24.78-.32,1.19-.23.4.09.72.32.95.68.24.38.31.78.21,1.18-.1.41-.34.73-.72.97l-1.82,1.14ZM79.29,94.28l1.52,2.41,1.73-1.08c.36-.22.59-.53.68-.9.09-.38.02-.75-.2-1.1-.21-.34-.51-.55-.88-.63-.37-.08-.74,0-1.1.22l-1.74,1.08Z"/>
      </g>
      <g>
        <path class="cls-1" d="M83.23,90.38l1.12-1.05,4.47,1.1-.86-4.51,1.08-1.02,1.1,6.03,2.79,2.96-.93.88-2.79-2.96-5.98-1.42Z"/>
        <path class="cls-1" d="M91.99,94.84l-2.81-2.98-6.07-1.44,1.21-1.14h.03s4.39,1.09,4.39,1.09l-.85-4.46,1.18-1.11,1.12,6.11,2.82,2.98-1.01.95ZM83.34,90.35l5.9,1.4h.01s2.75,2.93,2.75,2.93l.85-.8-2.76-2.93v-.02s-1.09-5.93-1.09-5.93l-.99.93.87,4.57-4.53-1.11-1.02.96Z"/>
      </g>
      <g>
        <path class="cls-1" d="M102.46,81.02l-.78,1.31-4.54.15-.8,1.35,3.29,1.96-.65,1.1-7.91-4.7,1.74-2.92c.4-.67.95-1.1,1.67-1.3.72-.2,1.4-.11,2.04.28.57.34.96.78,1.18,1.32.22.54.24,1.1.07,1.69l4.69-.22ZM92.76,81.7l2.55,1.5,1.07-1.8c.23-.38.29-.76.19-1.16-.1-.39-.33-.7-.7-.92-.36-.21-.73-.27-1.12-.16-.38.11-.69.35-.91.73l-1.08,1.81Z"/>
        <path class="cls-1" d="M99,86.95l-8.01-4.76,1.76-2.97c.4-.68.97-1.12,1.7-1.32.73-.2,1.43-.11,2.09.28.58.34.98.8,1.21,1.34.21.53.25,1.08.09,1.66l4.71-.22-.85,1.42h-.03s-4.51.15-4.51.15l-.76,1.27,3.29,1.96-.71,1.19ZM91.14,82.15l7.81,4.65.6-1-3.29-1.96.84-1.42h.03s4.51-.15,4.51-.15l.71-1.19-4.66.22.02-.07c.17-.58.14-1.13-.07-1.66-.21-.53-.6-.96-1.16-1.29-.63-.37-1.3-.47-2-.27-.7.19-1.25.62-1.63,1.27l-1.71,2.87ZM95.32,83.28l-2.65-1.56,1.1-1.86c.23-.39.55-.64.95-.75.4-.11.79-.05,1.16.17.38.23.63.55.73.95.1.4.03.81-.2,1.2l-1.1,1.85ZM92.83,81.68l2.45,1.44,1.04-1.75c.22-.36.28-.74.18-1.11-.09-.38-.32-.67-.68-.88-.35-.21-.71-.26-1.07-.16-.37.1-.66.34-.88.7l-1.05,1.76Z"/>
      </g>
      <g>
        <path class="cls-1" d="M94.77,75.4l.5-1.18,8.47,3.6-.5,1.18-8.47-3.6Z"/>
        <path class="cls-1" d="M103.27,79.07l-8.57-3.64.54-1.28,8.57,3.64-.54,1.28ZM94.85,75.37l8.37,3.56.46-1.07-8.37-3.56-.46,1.07Z"/>
      </g>
      <g>
        <path class="cls-1" d="M96.68,70.07c.16-.61.42-1.16.78-1.65.36-.49.79-.88,1.28-1.17.49-.29,1.04-.48,1.65-.57.61-.09,1.22-.05,1.85.11.63.16,1.2.43,1.7.8.5.37.89.8,1.19,1.3.29.49.48,1.04.57,1.65.09.61.05,1.22-.11,1.83l-.74,2.85-8.91-2.3.74-2.85ZM104.44,72c.23-.89.1-1.7-.38-2.45-.48-.75-1.2-1.24-2.15-1.49-.94-.24-1.79-.15-2.55.27-.76.42-1.26,1.08-1.49,1.97l-.44,1.69,6.57,1.7.44-1.69Z"/>
        <path class="cls-1" d="M104.89,75.3l-9.02-2.33.75-2.91c.16-.62.43-1.18.79-1.67.37-.49.8-.89,1.3-1.19.49-.3,1.05-.49,1.67-.58.61-.09,1.24-.05,1.87.11.64.16,1.22.44,1.72.81.5.38.91.82,1.2,1.31.3.5.49,1.06.58,1.67.09.61.05,1.23-.11,1.85l-.75,2.91ZM96.01,72.89l8.8,2.27.72-2.8c.16-.6.19-1.21.11-1.81-.08-.6-.27-1.14-.56-1.63-.29-.48-.68-.92-1.17-1.28-.49-.37-1.06-.63-1.68-.79-.62-.16-1.23-.2-1.83-.11-.6.08-1.14.27-1.62.56-.48.29-.91.68-1.26,1.16-.36.48-.62,1.03-.78,1.63h-.05s.05,0,.05,0l-.72,2.8ZM104.04,73.76l-6.68-1.73.45-1.74c.23-.9.74-1.58,1.51-2.01.77-.43,1.64-.52,2.59-.28.96.25,1.7.76,2.18,1.51.49.76.62,1.6.38,2.5h-.05s.05,0,.05,0l-.45,1.74ZM97.5,71.95l6.46,1.67.42-1.64c.22-.87.1-1.68-.37-2.41-.47-.73-1.18-1.23-2.12-1.47-.92-.24-1.77-.15-2.51.27-.74.41-1.24,1.07-1.46,1.94l-.42,1.64Z"/>
      </g>
      <g>
        <path class="cls-1" d="M97.82,64.76l.31-5.28,1.21.07-.24,4,2.52.15.21-3.57,1.2.07-.21,3.57,3.05.18.24-4,1.2.07-.31,5.28-9.19-.55Z"/>
        <path class="cls-1" d="M107.06,65.36l-9.3-.55.32-5.39,1.32.08-.24,4,2.41.14.21-3.57,1.32.08-.21,3.57,2.94.17.24-4,1.32.08-.32,5.39ZM97.88,64.71l9.08.54.31-5.17-1.09-.06-.24,4-3.16-.19.21-3.57-1.09-.06-.21,3.57-2.63-.16.24-4-1.1-.07-.31,5.17Z"/>
      </g>
    </g>
    <g>
      <path class="cls-1" d="M38.27,28.13l-1.33,1.14-5.02-1.51-1.37,1.18,2.88,3.35-1.12.96-6.92-8.07,2.98-2.55c.68-.58,1.45-.85,2.3-.8.86.05,1.57.4,2.14,1.06.5.58.77,1.21.81,1.88.04.67-.14,1.3-.55,1.88l5.21,1.49ZM27.4,25.29l2.24,2.58,1.83-1.57c.39-.33.6-.73.64-1.2.04-.47-.11-.89-.43-1.27-.32-.37-.7-.56-1.16-.59-.46-.03-.88.13-1.27.46l-1.85,1.58Z"/>
      <path class="cls-1" d="M33.86,18.33l1.58-.8,4.59,2.69.54-5.28,1.54-.77-.77,7.04,2.11,4.19-1.32.66-2.11-4.19-6.16-3.55Z"/>
      <path class="cls-1" d="M49.07,12.25c.72-.15,1.42-.17,2.11-.04.69.13,1.31.37,1.87.72.56.35,1.03.82,1.44,1.41s.68,1.24.84,1.97c.16.74.17,1.46.04,2.17-.13.71-.37,1.34-.73,1.9-.36.56-.83,1.04-1.41,1.44-.58.4-1.23.68-1.95.83l-3.33.71-2.21-10.4,3.33-.71ZM51.08,21.27c1.03-.22,1.81-.77,2.34-1.65.52-.88.67-1.88.43-2.99-.23-1.1-.77-1.93-1.6-2.5-.83-.57-1.77-.74-2.81-.52l-1.97.42,1.63,7.67,1.97-.42Z"/>
      <path class="cls-1" d="M58.34,10.97l6.11.16-.04,1.4-4.63-.12-.08,2.91,4.13.11-.04,1.39-4.13-.11-.09,3.53,4.63.12-.04,1.39-6.11-.16.28-10.63Z"/>
      <path class="cls-1" d="M73.62,12.8c.72.21,1.36.54,1.92.99.56.45,1.01.98,1.33,1.57.33.6.53,1.25.61,1.98.08.72.02,1.45-.19,2.17-.21.74-.54,1.39-1,1.97s-.98,1.03-1.57,1.37c-.59.34-1.25.55-1.96.63-.72.09-1.43.03-2.15-.18-.72-.21-1.36-.54-1.92-.99-.56-.45-1-.98-1.32-1.58-.32-.6-.52-1.26-.6-1.99-.08-.73-.01-1.46.2-2.2.28-.97.76-1.79,1.44-2.46.68-.67,1.48-1.12,2.4-1.35.92-.23,1.87-.21,2.83.07ZM74.97,15.21c-.47-.5-1.05-.85-1.74-1.05-.69-.2-1.37-.21-2.03-.03-.67.18-1.25.51-1.75,1.01-.5.5-.85,1.11-1.05,1.82-.32,1.11-.23,2.14.27,3.1s1.27,1.59,2.32,1.89c1.05.3,2.04.18,2.97-.37.93-.55,1.56-1.38,1.88-2.48.2-.71.23-1.41.08-2.1-.15-.69-.47-1.28-.94-1.79Z"/>
      <path class="cls-1" d="M82.86,16.48l1.12.72.39,9.59,4.24-6.63,1.23.79-5.73,8.96-1.09-.7-.41-9.58-4.23,6.62-1.24-.8,5.73-8.96Z"/>
    </g>
    <circle class="cls-1" cx="19.03" cy="47.2" r="1.78"/>
    <circle class="cls-1" cx="100.86" cy="47.2" r="1.78"/>
    <path class="cls-1" d="M60,112.42c-28.9,0-52.42-23.52-52.42-52.42S31.1,7.58,60,7.58s52.42,23.52,52.42,52.42-23.52,52.42-52.42,52.42ZM60,8.03c-28.66,0-51.97,23.32-51.97,51.97s23.32,51.97,51.97,51.97,51.97-23.32,51.97-51.97S88.66,8.03,60,8.03Z"/>
    <path class="cls-1" d="M60,93.74c-18.6,0-33.74-15.14-33.74-33.74s15.14-33.74,33.74-33.74,33.74,15.14,33.74,33.74-15.14,33.74-33.74,33.74ZM60,26.7c-18.36,0-33.3,14.94-33.3,33.3s14.94,33.3,33.3,33.3,33.3-14.94,33.3-33.3-14.94-33.3-33.3-33.3Z"/>
  </g>
  <g>
    <path class="cls-1" d="M76.13,50.78c-1.77-7.53-8.39-12.78-16.13-12.78s-14.36,5.25-16.12,12.78c-.3,1.23-.45,2.5-.45,3.81,0,.33.01.66.03,1,.02.32.05.65.09.98v.02c.03.31.08.61.14.92v.05c.12.63.27,1.26.45,1.87.19.62.42,1.24.68,1.83.13.3.27.59.42.88.4.8.88,1.58,1.44,2.32l13.15,18.24c.08.11.25.11.33,0l3.12-4.33c.1-.14.1-.33,0-.48l-3.29-4.56-1.71-2.37-7.09-9.81c-.82-1.11-1.45-2.39-1.81-3.77-.01-.05-.03-.11-.04-.16-.07-.27-.13-.55-.17-.83-.05-.29-.09-.58-.11-.88-.03-.3-.04-.6-.04-.91,0-.86.1-1.71.29-2.52.29-1.21.77-2.34,1.42-3.37.12-.19.25-.38.38-.56.26-.36.55-.7.86-1.04.15-.17.31-.32.47-.48,1.97-1.86,4.62-3.01,7.54-3.01,5.2,0,9.55,3.61,10.68,8.45.2.81.29,1.66.29,2.52,0,.37-.02.74-.06,1.11-.02.21-.04.42-.08.62-.01.06-.01.12-.03.17-.04.22-.08.44-.14.65-.03.16-.07.32-.12.48-.36,1.29-.97,2.48-1.74,3.53l-1.53,2.13c-.07.1-.22.11-.31.02l-9.17-9.17c-.08-.08-.21-.08-.29,0l-.59.59c-.08.08-.08.21,0,.29l13.31,13.35c.09.09.24.08.31-.02l2.8-3.88c.37-.5.71-1.03,1.03-1.56.17-.3.34-.6.48-.9.03-.04.05-.08.06-.12.16-.3.29-.61.42-.91.14-.33.27-.67.38-1.02.11-.32.21-.64.3-.98.01-.04.02-.08.03-.12.09-.33.17-.66.23-1,.05-.27.1-.54.14-.81.02-.14.04-.28.06-.43v-.03c.04-.29.07-.59.08-.88.03-.37.04-.73.04-1.11,0-1.31-.15-2.58-.44-3.81Z"/>
    <path class="cls-1" d="M54.79,57.72l-.16.15c-.16.15-.17.4-.02.56l2.05,2.36c.15.17.41.19.58.04l.19-.17c.17-.15.18-.41.03-.57l-2.08-2.34c-.15-.17-.42-.18-.59-.02Z"/>
    <path class="cls-1" d="M58.92,62.34l-.22.19c-.17.15-.18.4-.04.57l2.54,2.92c.15.17.41.19.58.04l.24-.22c.17-.15.18-.41.03-.58l-2.57-2.89c-.15-.17-.41-.18-.57-.03Z"/>
    <path class="cls-1" d="M64.27,67.74c-.15-.17-.41-.18-.57-.03l-.27.24c-.17.15-.18.4-.04.57l3.49,4c.15.17.41.19.58.04l.32-.28c.17-.15.19-.41.04-.58l-3.53-3.96Z"/>
  </g>
</svg>